<svg width="18" height="18" viewBox="0 0 18 18" fill="none" xmlns="http://www.w3.org/2000/svg">
<path d="M8.29907 0C3.70093 0 0 3.70093 0 8.29907C0 12.8411 3.70093 16.5981 8.29907 16.5981C12.8972 16.5981 16.5981 12.8972 16.5981 8.29907C16.5421 3.70093 12.8411 0 8.29907 0ZM8.29907 14.8037C4.71028 14.8037 1.79439 11.8879 1.79439 8.29907C1.79439 4.71028 4.71028 1.79439 8.29907 1.79439C11.8879 1.79439 14.8037 4.71028 14.8037 8.29907C14.8037 11.8879 11.8879 14.8037 8.29907 14.8037Z" fill="black"/>
<path d="M16.8785 18C16.5981 18 16.3177 17.8878 16.0934 17.6635L13.2897 14.8598C12.8411 14.4112 12.8411 13.7383 13.2897 13.2897C13.7383 12.8411 14.4112 12.8411 14.8598 13.2897L17.6635 16.0934C18.1121 16.542 18.1121 17.2149 17.6635 17.6635C17.4953 17.9439 17.2149 18 16.8785 18Z" fill="black"/>
</svg>
